<?xml version="1.0" encoding="utf-8"?>
<!-- Generator: Adobe why 24.0.0, SVG Export Plug-In . SVG Version: 6.00 Build 0)  -->
<svg fill='#ffffff' version="1.1" xmlns="http://www.w3.org/2000/svg" xmlns:xlink="http://www.w3.org/1999/xlink" x="0px" y="0px"
	 viewBox="0 0 512 512" style="enable-background:new 0 0 512 512;" xml:space="preserve">
<g id="Layer_2">
</g>
<g id="Capa_1">
	<g>
		<path d="M342,284.3c15.4,0,28,11.2,28,25c0,2.2,1.8,4,4,4s4-1.8,4-4c0-15.2-11.2-28.4-27.3-32.1l-4.7-1.1v-4.8v-5.2
			c0-2.2-1.8-4-4-4s-4,1.8-4,4v5.2v4.8l-4.7,1.1c-16.1,3.7-27.3,16.9-27.3,32.1c0,18.2,16.1,33,36,33c15.4,0,28,11.2,28,25
			c0,13.8-12.6,25-28,25s-28-11.2-28-25c0-2.2-1.8-4-4-4s-4,1.8-4,4c0,15.2,11.2,28.4,27.3,32.1l4.7,1.1v4.8v4.3c0,2.2,1.8,4,4,4
			s4-1.8,4-4v-4.3v-4.8l4.7-1.1c16.1-3.7,27.3-16.9,27.3-32.1c0-18.2-16.1-33-36-33c-15.4,0-28-11.2-28-25
			C314,295.5,326.5,284.3,342,284.3z"/>
		<path d="M471.9,239c-21.6-28-52.2-48.6-86.1-58l-2.2-0.6c-2.6-7.8-7.5-14.5-14-19.3h5.9H409h0.1c22.1,0,40-17.9,40-40
			c0-22.1-17.9-40-40-40H409h-72.7h-18.8l6.5-9.4c4.6-6.7,7-14.5,7-22.6c0-22.1-17.9-40-40-40H46C23.9,9,6,26.9,6,49
			c0,22.1,17.9,40,40,40h93.7c-9.7,7.3-16,18.9-16,32s6.3,24.7,16,32H100c-22.1,0-40,17.9-40,40c0,12.2,5.5,23.6,15.2,31.3l5.9,4.7
			l-5.9,4.7C65.5,241.4,60,252.8,60,265s5.5,23.6,15.2,31.3l5.9,4.7l-5.9,4.7C65.5,313.4,60,324.8,60,337s5.5,23.6,15.2,31.3
			l5.9,4.7l-5.9,4.7C65.5,385.4,60,396.8,60,409c0,22.1,17.9,40,40,40h120.5l1.8,1.9c15.2,16.3,33.2,29.1,53.4,38.1
			c21,9.3,43.3,14,66.3,14c90.4,0,164-73.6,164-164C506,302.5,494.2,267.9,471.9,239z M336.3,89H409c17.6,0,32,14.4,32,32
			c0,17.6-14.4,32-32,32h-63.3h-9.4h-63.4h-36.5H164c-17.6,0-32-14.4-32-32c0-17.6,14.4-32,32-32h72.4H336.3z M46,81
			c-17.6,0-32-14.4-32-32c0-17.6,14.4-32,32-32h245c17.6,0,32,14.4,32,32c0,17.6-14.4,32-32,32h-54.6h-72.8H46z M68,193
			c0-17.6,14.4-32,32-32h63.6h72.8h36.5h63.4h7.6h1.8c11.8,0,22.2,6.5,27.7,16.1l-17.6-1.5c-4.7-0.4-9.3-0.6-13.8-0.6
			c-22.1,0-43.6,4.4-63.9,12.9c-19.5,8.3-37.1,20.2-52.2,35.3l-1.8,1.8H100C82.4,225,68,210.6,68,193z M68,265c0-17.6,14.4-32,32-32
			h116.4l-7,9.5c-11.1,15.3-19.5,32.1-24.8,50.2l-1.3,4.3H100C82.4,297,68,282.6,68,265z M68,337c0-17.6,14.4-32,32-32h81.4l-1.2,7
			c-1.5,8.9-2.2,18-2.2,27c0,7.7,0.6,15.5,1.6,23.2l1,6.8H100C82.4,369,68,354.6,68,337z M100,441c-17.6,0-32-14.4-32-32
			s14.4-32,32-32h82.4l1.2,4.4c4.8,17.9,12.6,34.8,23.1,50.2l6.5,9.4H100z M342,495c-86,0-156-70-156-156s70-156,156-156
			s156,70,156,156S428,495,342,495z"/>
	</g>
</g>
</svg>
