<svg width="636" height="446" viewBox="0 0 636 446" fill="none" xmlns="http://www.w3.org/2000/svg">
<path d="M201.859 292V280.364H206.007C206.912 280.364 207.662 280.528 208.257 280.858C208.852 281.187 209.297 281.638 209.592 282.21C209.888 282.778 210.035 283.419 210.035 284.131C210.035 284.847 209.886 285.491 209.587 286.062C209.291 286.631 208.844 287.081 208.246 287.415C207.651 287.744 206.903 287.909 206.001 287.909H203.149V286.42H205.842C206.414 286.42 206.878 286.322 207.234 286.125C207.59 285.924 207.852 285.652 208.018 285.307C208.185 284.962 208.268 284.57 208.268 284.131C208.268 283.691 208.185 283.301 208.018 282.96C207.852 282.619 207.589 282.352 207.229 282.159C206.873 281.966 206.403 281.869 205.82 281.869H203.615V292H201.859ZM211.637 292V283.273H213.279V284.659H213.37C213.529 284.189 213.81 283.82 214.211 283.551C214.617 283.278 215.075 283.142 215.586 283.142C215.692 283.142 215.817 283.146 215.961 283.153C216.109 283.161 216.224 283.17 216.308 283.182V284.807C216.24 284.788 216.118 284.767 215.944 284.744C215.77 284.718 215.596 284.705 215.421 284.705C215.02 284.705 214.662 284.79 214.348 284.96C214.037 285.127 213.791 285.36 213.609 285.659C213.427 285.955 213.336 286.292 213.336 286.67V292H211.637ZM217.458 292V283.273H219.157V292H217.458ZM218.316 281.926C218.02 281.926 217.767 281.828 217.555 281.631C217.346 281.43 217.242 281.191 217.242 280.915C217.242 280.634 217.346 280.396 217.555 280.199C217.767 279.998 218.02 279.898 218.316 279.898C218.611 279.898 218.863 279.998 219.072 280.199C219.284 280.396 219.39 280.634 219.39 280.915C219.39 281.191 219.284 281.43 219.072 281.631C218.863 281.828 218.611 281.926 218.316 281.926ZM221.122 292V283.273H222.753V284.693H222.861C223.043 284.212 223.34 283.837 223.753 283.568C224.166 283.295 224.66 283.159 225.236 283.159C225.819 283.159 226.308 283.295 226.702 283.568C227.1 283.841 227.393 284.216 227.583 284.693H227.673C227.882 284.227 228.213 283.856 228.668 283.58C229.122 283.299 229.664 283.159 230.293 283.159C231.084 283.159 231.73 283.407 232.23 283.903C232.734 284.4 232.986 285.148 232.986 286.148V292H231.287V286.307C231.287 285.716 231.126 285.288 230.804 285.023C230.482 284.758 230.098 284.625 229.651 284.625C229.098 284.625 228.668 284.795 228.361 285.136C228.054 285.473 227.901 285.907 227.901 286.438V292H226.208V286.199C226.208 285.725 226.06 285.345 225.764 285.057C225.469 284.769 225.084 284.625 224.611 284.625C224.289 284.625 223.992 284.71 223.719 284.881C223.45 285.047 223.232 285.28 223.066 285.58C222.903 285.879 222.821 286.225 222.821 286.619V292H221.122ZM237.483 292.193C236.93 292.193 236.43 292.091 235.983 291.886C235.536 291.678 235.182 291.377 234.92 290.983C234.663 290.589 234.534 290.106 234.534 289.534C234.534 289.042 234.629 288.636 234.818 288.318C235.007 288 235.263 287.748 235.585 287.562C235.907 287.377 236.267 287.237 236.665 287.142C237.062 287.047 237.468 286.975 237.88 286.926C238.403 286.866 238.827 286.816 239.153 286.778C239.479 286.737 239.716 286.67 239.863 286.58C240.011 286.489 240.085 286.341 240.085 286.136V286.097C240.085 285.6 239.945 285.216 239.665 284.943C239.388 284.67 238.975 284.534 238.426 284.534C237.854 284.534 237.403 284.661 237.074 284.915C236.748 285.165 236.523 285.443 236.398 285.75L234.801 285.386C234.99 284.856 235.267 284.428 235.63 284.102C235.998 283.773 236.42 283.534 236.898 283.386C237.375 283.235 237.877 283.159 238.403 283.159C238.752 283.159 239.121 283.201 239.511 283.284C239.905 283.364 240.273 283.511 240.613 283.727C240.958 283.943 241.24 284.252 241.46 284.653C241.68 285.051 241.79 285.568 241.79 286.205V292H240.13V290.807H240.062C239.952 291.027 239.788 291.242 239.568 291.455C239.348 291.667 239.066 291.843 238.721 291.983C238.377 292.123 237.964 292.193 237.483 292.193ZM237.852 290.83C238.322 290.83 238.723 290.737 239.057 290.551C239.394 290.366 239.649 290.123 239.824 289.824C240.002 289.521 240.091 289.197 240.091 288.852V287.727C240.03 287.788 239.913 287.845 239.738 287.898C239.568 287.947 239.373 287.991 239.153 288.028C238.934 288.062 238.72 288.095 238.511 288.125C238.303 288.152 238.129 288.174 237.988 288.193C237.659 288.235 237.358 288.305 237.085 288.403C236.816 288.502 236.6 288.644 236.437 288.83C236.278 289.011 236.199 289.254 236.199 289.557C236.199 289.977 236.354 290.295 236.665 290.511C236.975 290.723 237.371 290.83 237.852 290.83ZM243.732 292V283.273H245.374V284.659H245.465C245.624 284.189 245.905 283.82 246.306 283.551C246.712 283.278 247.17 283.142 247.681 283.142C247.787 283.142 247.912 283.146 248.056 283.153C248.204 283.161 248.319 283.17 248.403 283.182V284.807C248.335 284.788 248.213 284.767 248.039 284.744C247.865 284.718 247.691 284.705 247.516 284.705C247.115 284.705 246.757 284.79 246.443 284.96C246.132 285.127 245.886 285.36 245.704 285.659C245.522 285.955 245.431 286.292 245.431 286.67V292H243.732ZM250.892 295.273C250.639 295.273 250.408 295.252 250.199 295.21C249.991 295.172 249.836 295.131 249.733 295.085L250.142 293.693C250.453 293.777 250.73 293.813 250.972 293.801C251.214 293.79 251.428 293.699 251.614 293.528C251.803 293.358 251.97 293.08 252.114 292.693L252.324 292.114L249.131 283.273H250.949L253.16 290.045H253.25L255.461 283.273H257.285L253.688 293.165C253.521 293.619 253.309 294.004 253.052 294.318C252.794 294.636 252.487 294.875 252.131 295.034C251.775 295.193 251.362 295.273 250.892 295.273ZM203.426 312V300.364H207.574C208.475 300.364 209.223 300.519 209.818 300.83C210.416 301.14 210.863 301.57 211.159 302.119C211.454 302.665 211.602 303.295 211.602 304.011C211.602 304.723 211.452 305.35 211.153 305.892C210.858 306.43 210.411 306.848 209.812 307.148C209.218 307.447 208.469 307.597 207.568 307.597H204.426V306.085H207.409C207.977 306.085 208.439 306.004 208.795 305.841C209.155 305.678 209.418 305.441 209.585 305.131C209.752 304.82 209.835 304.447 209.835 304.011C209.835 303.572 209.75 303.191 209.579 302.869C209.413 302.547 209.149 302.301 208.79 302.131C208.433 301.956 207.966 301.869 207.386 301.869H205.182V312H203.426ZM209.17 306.75L212.045 312H210.045L207.227 306.75H209.17ZM216.934 312.176C216.074 312.176 215.334 311.992 214.712 311.625C214.095 311.254 213.618 310.733 213.281 310.062C212.947 309.388 212.781 308.598 212.781 307.693C212.781 306.799 212.947 306.011 213.281 305.33C213.618 304.648 214.087 304.116 214.69 303.733C215.296 303.35 216.004 303.159 216.815 303.159C217.307 303.159 217.784 303.241 218.247 303.403C218.709 303.566 219.123 303.822 219.491 304.17C219.858 304.519 220.148 304.972 220.36 305.528C220.572 306.081 220.678 306.754 220.678 307.545V308.148H213.741V306.875H219.014C219.014 306.428 218.923 306.032 218.741 305.688C218.559 305.339 218.303 305.064 217.974 304.864C217.648 304.663 217.265 304.562 216.826 304.562C216.349 304.562 215.932 304.68 215.576 304.915C215.224 305.146 214.951 305.449 214.758 305.824C214.569 306.195 214.474 306.598 214.474 307.034V308.028C214.474 308.612 214.576 309.108 214.781 309.517C214.989 309.926 215.279 310.239 215.65 310.455C216.021 310.667 216.455 310.773 216.951 310.773C217.273 310.773 217.567 310.727 217.832 310.636C218.097 310.542 218.326 310.402 218.519 310.216C218.712 310.03 218.86 309.801 218.962 309.528L220.57 309.818C220.442 310.292 220.211 310.706 219.877 311.062C219.548 311.415 219.133 311.689 218.633 311.886C218.137 312.08 217.57 312.176 216.934 312.176ZM222.243 315.273V303.273H223.902V304.688H224.044C224.143 304.506 224.285 304.295 224.471 304.057C224.656 303.818 224.914 303.61 225.243 303.432C225.573 303.25 226.008 303.159 226.55 303.159C227.255 303.159 227.883 303.337 228.436 303.693C228.99 304.049 229.423 304.562 229.738 305.233C230.056 305.903 230.215 306.71 230.215 307.653C230.215 308.597 230.058 309.405 229.743 310.08C229.429 310.75 228.997 311.267 228.448 311.631C227.899 311.991 227.272 312.17 226.567 312.17C226.037 312.17 225.603 312.081 225.266 311.903C224.933 311.725 224.671 311.517 224.482 311.278C224.293 311.04 224.147 310.828 224.044 310.642H223.942V315.273H222.243ZM223.908 307.636C223.908 308.25 223.997 308.788 224.175 309.25C224.353 309.712 224.611 310.074 224.948 310.335C225.285 310.593 225.698 310.722 226.186 310.722C226.694 310.722 227.118 310.587 227.459 310.318C227.8 310.045 228.058 309.676 228.232 309.21C228.41 308.744 228.499 308.22 228.499 307.636C228.499 307.061 228.412 306.544 228.238 306.085C228.067 305.627 227.81 305.265 227.465 305C227.124 304.735 226.698 304.602 226.186 304.602C225.694 304.602 225.277 304.729 224.936 304.983C224.599 305.237 224.344 305.591 224.169 306.045C223.995 306.5 223.908 307.03 223.908 307.636ZM233.497 300.364V312H231.798V300.364H233.497ZM235.463 312V303.273H237.162V312H235.463ZM236.321 301.926C236.025 301.926 235.771 301.828 235.559 301.631C235.351 301.43 235.247 301.191 235.247 300.915C235.247 300.634 235.351 300.396 235.559 300.199C235.771 299.998 236.025 299.898 236.321 299.898C236.616 299.898 236.868 299.998 237.076 300.199C237.288 300.396 237.394 300.634 237.394 300.915C237.394 301.191 237.288 301.43 237.076 301.631C236.868 301.828 236.616 301.926 236.321 301.926ZM242.803 312.176C241.958 312.176 241.231 311.985 240.621 311.602C240.015 311.216 239.549 310.684 239.224 310.006C238.898 309.328 238.735 308.551 238.735 307.676C238.735 306.79 238.902 306.008 239.235 305.33C239.568 304.648 240.038 304.116 240.644 303.733C241.25 303.35 241.964 303.159 242.786 303.159C243.449 303.159 244.04 303.282 244.559 303.528C245.078 303.771 245.496 304.112 245.815 304.551C246.137 304.991 246.328 305.504 246.388 306.091H244.735C244.644 305.682 244.436 305.33 244.11 305.034C243.788 304.739 243.356 304.591 242.815 304.591C242.341 304.591 241.926 304.716 241.57 304.966C241.218 305.212 240.943 305.564 240.746 306.023C240.549 306.477 240.451 307.015 240.451 307.636C240.451 308.273 240.548 308.822 240.741 309.284C240.934 309.746 241.207 310.104 241.559 310.358C241.915 310.612 242.333 310.739 242.815 310.739C243.137 310.739 243.428 310.68 243.69 310.562C243.955 310.441 244.176 310.269 244.354 310.045C244.536 309.822 244.663 309.553 244.735 309.239H246.388C246.328 309.803 246.144 310.307 245.837 310.75C245.53 311.193 245.119 311.542 244.604 311.795C244.093 312.049 243.493 312.176 242.803 312.176ZM250.425 312.193C249.872 312.193 249.372 312.091 248.925 311.886C248.478 311.678 248.124 311.377 247.862 310.983C247.605 310.589 247.476 310.106 247.476 309.534C247.476 309.042 247.571 308.636 247.76 308.318C247.95 308 248.205 307.748 248.527 307.562C248.849 307.377 249.209 307.237 249.607 307.142C250.004 307.047 250.41 306.975 250.823 306.926C251.345 306.866 251.77 306.816 252.095 306.778C252.421 306.737 252.658 306.67 252.806 306.58C252.953 306.489 253.027 306.341 253.027 306.136V306.097C253.027 305.6 252.887 305.216 252.607 304.943C252.33 304.67 251.917 304.534 251.368 304.534C250.796 304.534 250.345 304.661 250.016 304.915C249.69 305.165 249.465 305.443 249.34 305.75L247.743 305.386C247.933 304.856 248.209 304.428 248.573 304.102C248.94 303.773 249.362 303.534 249.84 303.386C250.317 303.235 250.819 303.159 251.345 303.159C251.694 303.159 252.063 303.201 252.453 303.284C252.847 303.364 253.215 303.511 253.556 303.727C253.9 303.943 254.183 304.252 254.402 304.653C254.622 305.051 254.732 305.568 254.732 306.205V312H253.073V310.807H253.004C252.895 311.027 252.73 311.242 252.51 311.455C252.29 311.667 252.008 311.843 251.664 311.983C251.319 312.123 250.906 312.193 250.425 312.193ZM250.794 310.83C251.264 310.83 251.665 310.737 251.999 310.551C252.336 310.366 252.592 310.123 252.766 309.824C252.944 309.521 253.033 309.197 253.033 308.852V307.727C252.972 307.788 252.855 307.845 252.681 307.898C252.51 307.947 252.315 307.991 252.095 308.028C251.876 308.062 251.662 308.095 251.453 308.125C251.245 308.152 251.071 308.174 250.931 308.193C250.601 308.235 250.3 308.305 250.027 308.403C249.758 308.502 249.542 308.644 249.379 308.83C249.22 309.011 249.141 309.254 249.141 309.557C249.141 309.977 249.296 310.295 249.607 310.511C249.917 310.723 250.313 310.83 250.794 310.83Z" fill="white"/>
<rect x="199" y="203" width="60" height="60" rx="12" fill="#FFD7CB"/>
<circle cx="234" cy="246" r="9" fill="#FB6F6F" stroke="#A91414" stroke-width="1.25"/>
<rect x="234.34" y="212.344" width="15.1047" height="15.1047" transform="rotate(13.8524 234.34 212.344)" fill="#FB6F6F" stroke="#A91414" stroke-width="1.25"/>
<path d="M213.276 219.259L229.198 232.619L209.667 239.728L213.276 219.259Z" fill="#FB6F6F" stroke="#A91414" stroke-width="1.25"/>
<rect x="199.5" y="203.5" width="59" height="59" rx="11.5" stroke="#A91414" stroke-opacity="0.3"/>
<path d="M234.445 239.681V262.319C234.445 265.003 240.913 267.17 248.998 267.17C257.083 267.17 263.551 265.003 263.551 262.319V239.681" fill="url(#paint0_linear_183_29036)"/>
<path d="M234.445 239.681C234.445 237.002 240.961 234.83 248.998 234.83C257.036 234.83 263.551 237.002 263.551 239.681V262.319C263.551 265.003 257.083 267.17 248.998 267.17C240.913 267.17 234.445 265.003 234.445 262.319V239.681Z" fill="url(#paint1_linear_183_29036)"/>
<path d="M263.551 239.681C263.551 242.36 257.036 244.532 248.998 244.532C240.961 244.532 234.445 242.36 234.445 239.681M263.551 239.681C263.551 237.002 257.036 234.83 248.998 234.83C240.961 234.83 234.445 237.002 234.445 239.681M263.551 239.681V262.319C263.551 265.003 257.083 267.17 248.998 267.17C240.913 267.17 234.445 265.003 234.445 262.319V239.681M263.551 251C263.551 253.684 257.083 255.851 248.998 255.851C240.913 255.851 234.445 253.684 234.445 251" stroke="black" stroke-width="1.5" stroke-linecap="round" stroke-linejoin="round"/>
<path d="M52.4229 294.148H50.6501C50.582 293.769 50.4551 293.436 50.2695 293.148C50.0839 292.86 49.8566 292.616 49.5876 292.415C49.3187 292.214 49.0176 292.062 48.6842 291.96C48.3547 291.858 48.0043 291.807 47.6331 291.807C46.9626 291.807 46.3623 291.975 45.832 292.312C45.3054 292.65 44.8888 293.144 44.582 293.795C44.2789 294.447 44.1274 295.242 44.1274 296.182C44.1274 297.129 44.2789 297.928 44.582 298.58C44.8888 299.231 45.3073 299.723 45.8376 300.057C46.3679 300.39 46.9645 300.557 47.6274 300.557C47.9948 300.557 48.3433 300.508 48.6729 300.409C49.0062 300.307 49.3073 300.157 49.5763 299.96C49.8452 299.763 50.0725 299.523 50.2581 299.239C50.4475 298.951 50.5782 298.621 50.6501 298.25L52.4229 298.256C52.3282 298.828 52.1445 299.354 51.8717 299.835C51.6028 300.312 51.2562 300.725 50.832 301.074C50.4115 301.419 49.9304 301.686 49.3888 301.875C48.8471 302.064 48.2562 302.159 47.6161 302.159C46.6085 302.159 45.7107 301.92 44.9229 301.443C44.135 300.962 43.5138 300.275 43.0592 299.381C42.6085 298.487 42.3831 297.42 42.3831 296.182C42.3831 294.939 42.6104 293.873 43.0649 292.983C43.5195 292.089 44.1407 291.403 44.9286 290.926C45.7164 290.445 46.6123 290.205 47.6161 290.205C48.2335 290.205 48.8092 290.294 49.3433 290.472C49.8812 290.646 50.3642 290.903 50.7922 291.244C51.2202 291.581 51.5744 291.994 51.8547 292.483C52.135 292.968 52.3244 293.523 52.4229 294.148ZM55.7662 290.364V302H54.0674V290.364H55.7662ZM57.7317 302V293.273H59.4306V302H57.7317ZM58.5897 291.926C58.2942 291.926 58.0404 291.828 57.8283 291.631C57.62 291.43 57.5158 291.191 57.5158 290.915C57.5158 290.634 57.62 290.396 57.8283 290.199C58.0404 289.998 58.2942 289.898 58.5897 289.898C58.8851 289.898 59.137 289.998 59.3454 290.199C59.5575 290.396 59.6636 290.634 59.6636 290.915C59.6636 291.191 59.5575 291.43 59.3454 291.631C59.137 291.828 58.8851 291.926 58.5897 291.926ZM65.1575 302.176C64.2976 302.176 63.5571 301.992 62.9359 301.625C62.3185 301.254 61.8412 300.733 61.5041 300.062C61.1707 299.388 61.0041 298.598 61.0041 297.693C61.0041 296.799 61.1707 296.011 61.5041 295.33C61.8412 294.648 62.3109 294.116 62.9132 293.733C63.5192 293.35 64.2275 293.159 65.0382 293.159C65.5306 293.159 66.0079 293.241 66.47 293.403C66.9321 293.566 67.3469 293.822 67.7143 294.17C68.0817 294.519 68.3715 294.972 68.5836 295.528C68.7957 296.081 68.9018 296.754 68.9018 297.545V298.148H61.9643V296.875H67.237C67.237 296.428 67.1461 296.032 66.9643 295.688C66.7825 295.339 66.5268 295.064 66.1972 294.864C65.8715 294.663 65.4889 294.562 65.0495 294.562C64.5722 294.562 64.1556 294.68 63.7995 294.915C63.4472 295.146 63.1745 295.449 62.9813 295.824C62.7919 296.195 62.6972 296.598 62.6972 297.034V298.028C62.6972 298.612 62.7995 299.108 63.0041 299.517C63.2124 299.926 63.5022 300.239 63.8734 300.455C64.2446 300.667 64.6783 300.773 65.1745 300.773C65.4965 300.773 65.79 300.727 66.0552 300.636C66.3204 300.542 66.5495 300.402 66.7427 300.216C66.9359 300.03 67.0836 299.801 67.1859 299.528L68.7938 299.818C68.665 300.292 68.434 300.706 68.1007 301.062C67.7711 301.415 67.3563 301.689 66.8563 301.886C66.3601 302.08 65.7938 302.176 65.1575 302.176ZM72.1656 296.818V302H70.4667V293.273H72.0974V294.693H72.2054C72.4061 294.231 72.7205 293.86 73.1485 293.58C73.5804 293.299 74.1239 293.159 74.7792 293.159C75.3739 293.159 75.8948 293.284 76.3417 293.534C76.7887 293.78 77.1353 294.148 77.3815 294.636C77.6277 295.125 77.7508 295.729 77.7508 296.449V302H76.052V296.653C76.052 296.021 75.8872 295.527 75.5576 295.17C75.2281 294.811 74.7754 294.631 74.1997 294.631C73.8057 294.631 73.4554 294.716 73.1485 294.886C72.8455 295.057 72.605 295.307 72.427 295.636C72.2527 295.962 72.1656 296.356 72.1656 296.818ZM83.7831 293.273V294.636H79.0161V293.273H83.7831ZM80.2945 291.182H81.9933V299.438C81.9933 299.767 82.0426 300.015 82.1411 300.182C82.2395 300.345 82.3664 300.456 82.5217 300.517C82.6808 300.574 82.8532 300.602 83.0388 300.602C83.1751 300.602 83.2945 300.593 83.3967 300.574C83.499 300.555 83.5786 300.54 83.6354 300.528L83.9422 301.932C83.8437 301.97 83.7036 302.008 83.5217 302.045C83.3399 302.087 83.1126 302.11 82.8399 302.114C82.3929 302.121 81.9763 302.042 81.5899 301.875C81.2036 301.708 80.8911 301.451 80.6524 301.102C80.4138 300.754 80.2945 300.316 80.2945 299.79V291.182Z" fill="white"/>
<g filter="url(#filter0_ddd_183_29036)">
<g clip-path="url(#clip0_183_29036)">
<rect x="33" y="203" width="60" height="60" rx="8" fill="black"/>
<mask id="path-12-inside-1_183_29036" fill="white">
<path d="M33 203H93V217H33V203Z"/>
</mask>
<path d="M33 203H93V217H33V203Z" fill="#F2F2F2" fill-opacity="0.1"/>
<circle cx="42" cy="210" r="3" fill="#F93B00" fill-opacity="0.8"/>
<circle cx="42" cy="210" r="2.5" stroke="white" stroke-opacity="0.1"/>
<circle cx="50" cy="210" r="3" fill="#F7A300" fill-opacity="0.8"/>
<circle cx="50" cy="210" r="2.5" stroke="white" stroke-opacity="0.1"/>
<circle cx="58" cy="210" r="3" fill="#33C200" fill-opacity="0.8"/>
<circle cx="58" cy="210" r="2.5" stroke="white" stroke-opacity="0.1"/>
<path d="M33 203.75H93V202.25H33V203.75Z" fill="url(#paint2_linear_183_29036)" mask="url(#path-12-inside-1_183_29036)"/>
<mask id="path-20-outside-2_183_29036" maskUnits="userSpaceOnUse" x="33" y="216" width="60" height="47" fill="black">
<rect fill="white" x="33" y="216" width="60" height="47"/>
<path d="M33 217H93V255C93 259.418 89.4183 263 85 263H41C36.5817 263 33 259.418 33 255V217Z"/>
</mask>
<path d="M33 217H93V255C93 259.418 89.4183 263 85 263H41C36.5817 263 33 259.418 33 255V217Z" fill="black"/>
<path d="M33 216H93V218H33V216ZM93 263H33H93ZM33 263V217V263ZM93 217V263V217Z" fill="white" fill-opacity="0.05" mask="url(#path-20-outside-2_183_29036)"/>
</g>
<rect x="33.5" y="203.5" width="59" height="59" rx="7.5" stroke="#444444"/>
</g>
<rect x="328" y="33" width="60" height="60" rx="12" fill="#301C16"/>
<path d="M344 51.8V74.2C344 76.856 350.222 79 358 79C365.778 79 372 76.856 372 74.2V51.8" fill="#9D3131"/>
<path d="M344 51.8C344 49.149 350.268 47 358 47C365.732 47 372 49.149 372 51.8V74.2C372 76.856 365.778 79 358 79C350.222 79 344 76.856 344 74.2V51.8Z" fill="#9D3131"/>
<path d="M372 51.8C372 54.451 365.732 56.6 358 56.6C350.268 56.6 344 54.451 344 51.8M372 51.8C372 49.149 365.732 47 358 47C350.268 47 344 49.149 344 51.8M372 51.8V74.2C372 76.856 365.778 79 358 79C350.222 79 344 76.856 344 74.2V51.8M372 63C372 65.656 365.778 67.8 358 67.8C350.222 67.8 344 65.656 344 63" stroke="#FB6F6F" stroke-width="1.5" stroke-linecap="round" stroke-linejoin="round"/>
<path d="M340.559 117V105.364H344.707C345.608 105.364 346.356 105.519 346.951 105.83C347.55 106.14 347.997 106.57 348.292 107.119C348.587 107.665 348.735 108.295 348.735 109.011C348.735 109.723 348.586 110.35 348.286 110.892C347.991 111.43 347.544 111.848 346.945 112.148C346.351 112.447 345.603 112.597 344.701 112.597H341.559V111.085H344.542C345.11 111.085 345.572 111.004 345.928 110.841C346.288 110.678 346.551 110.441 346.718 110.131C346.885 109.82 346.968 109.447 346.968 109.011C346.968 108.572 346.883 108.191 346.712 107.869C346.546 107.547 346.283 107.301 345.923 107.131C345.567 106.956 345.099 106.869 344.519 106.869H342.315V117H340.559ZM346.303 111.75L349.178 117H347.178L344.36 111.75H346.303ZM354.067 117.176C353.207 117.176 352.467 116.992 351.846 116.625C351.228 116.254 350.751 115.733 350.414 115.062C350.08 114.388 349.914 113.598 349.914 112.693C349.914 111.799 350.08 111.011 350.414 110.33C350.751 109.648 351.221 109.116 351.823 108.733C352.429 108.35 353.137 108.159 353.948 108.159C354.44 108.159 354.918 108.241 355.38 108.403C355.842 108.566 356.257 108.822 356.624 109.17C356.991 109.519 357.281 109.972 357.493 110.528C357.705 111.081 357.811 111.754 357.811 112.545V113.148H350.874V111.875H356.147C356.147 111.428 356.056 111.032 355.874 110.688C355.692 110.339 355.436 110.064 355.107 109.864C354.781 109.663 354.399 109.562 353.959 109.562C353.482 109.562 353.065 109.68 352.709 109.915C352.357 110.146 352.084 110.449 351.891 110.824C351.702 111.195 351.607 111.598 351.607 112.034V113.028C351.607 113.612 351.709 114.108 351.914 114.517C352.122 114.926 352.412 115.239 352.783 115.455C353.154 115.667 353.588 115.773 354.084 115.773C354.406 115.773 354.7 115.727 354.965 115.636C355.23 115.542 355.459 115.402 355.652 115.216C355.846 115.03 355.993 114.801 356.096 114.528L357.704 114.818C357.575 115.292 357.344 115.706 357.01 116.062C356.681 116.415 356.266 116.689 355.766 116.886C355.27 117.08 354.704 117.176 354.067 117.176ZM361.916 117.193C361.363 117.193 360.863 117.091 360.416 116.886C359.969 116.678 359.615 116.377 359.354 115.983C359.096 115.589 358.967 115.106 358.967 114.534C358.967 114.042 359.062 113.636 359.251 113.318C359.441 113 359.696 112.748 360.018 112.562C360.34 112.377 360.7 112.237 361.098 112.142C361.496 112.047 361.901 111.975 362.314 111.926C362.837 111.866 363.261 111.816 363.587 111.778C363.912 111.737 364.149 111.67 364.297 111.58C364.445 111.489 364.518 111.341 364.518 111.136V111.097C364.518 110.6 364.378 110.216 364.098 109.943C363.821 109.67 363.409 109.534 362.859 109.534C362.287 109.534 361.837 109.661 361.507 109.915C361.181 110.165 360.956 110.443 360.831 110.75L359.234 110.386C359.424 109.856 359.7 109.428 360.064 109.102C360.431 108.773 360.854 108.534 361.331 108.386C361.808 108.235 362.31 108.159 362.837 108.159C363.185 108.159 363.554 108.201 363.945 108.284C364.339 108.364 364.706 108.511 365.047 108.727C365.392 108.943 365.674 109.252 365.893 109.653C366.113 110.051 366.223 110.568 366.223 111.205V117H364.564V115.807H364.496C364.386 116.027 364.221 116.242 364.001 116.455C363.782 116.667 363.5 116.843 363.155 116.983C362.81 117.123 362.397 117.193 361.916 117.193ZM362.286 115.83C362.755 115.83 363.157 115.737 363.49 115.551C363.827 115.366 364.083 115.123 364.257 114.824C364.435 114.521 364.524 114.197 364.524 113.852V112.727C364.464 112.788 364.346 112.845 364.172 112.898C364.001 112.947 363.806 112.991 363.587 113.028C363.367 113.062 363.153 113.095 362.945 113.125C362.736 113.152 362.562 113.174 362.422 113.193C362.092 113.235 361.791 113.305 361.518 113.403C361.25 113.502 361.034 113.644 360.871 113.83C360.712 114.011 360.632 114.254 360.632 114.557C360.632 114.977 360.787 115.295 361.098 115.511C361.409 115.723 361.804 115.83 362.286 115.83ZM371.433 117.17C370.728 117.17 370.1 116.991 369.546 116.631C368.997 116.267 368.565 115.75 368.251 115.08C367.94 114.405 367.785 113.597 367.785 112.653C367.785 111.71 367.942 110.903 368.257 110.233C368.575 109.562 369.01 109.049 369.564 108.693C370.117 108.337 370.743 108.159 371.444 108.159C371.986 108.159 372.421 108.25 372.751 108.432C373.084 108.61 373.342 108.818 373.524 109.057C373.709 109.295 373.853 109.506 373.956 109.688H374.058V105.364H375.757V117H374.098V115.642H373.956C373.853 115.828 373.706 116.04 373.512 116.278C373.323 116.517 373.062 116.725 372.728 116.903C372.395 117.081 371.963 117.17 371.433 117.17ZM371.808 115.722C372.296 115.722 372.709 115.593 373.046 115.335C373.387 115.074 373.645 114.712 373.819 114.25C373.997 113.788 374.086 113.25 374.086 112.636C374.086 112.03 373.999 111.5 373.825 111.045C373.651 110.591 373.395 110.237 373.058 109.983C372.721 109.729 372.304 109.602 371.808 109.602C371.296 109.602 370.87 109.735 370.529 110C370.189 110.265 369.931 110.627 369.757 111.085C369.586 111.544 369.501 112.061 369.501 112.636C369.501 113.22 369.588 113.744 369.762 114.21C369.937 114.676 370.194 115.045 370.535 115.318C370.88 115.587 371.304 115.722 371.808 115.722ZM332.426 137V125.364H336.574C337.475 125.364 338.223 125.519 338.818 125.83C339.416 126.14 339.863 126.57 340.159 127.119C340.454 127.665 340.602 128.295 340.602 129.011C340.602 129.723 340.452 130.35 340.153 130.892C339.858 131.43 339.411 131.848 338.812 132.148C338.218 132.447 337.469 132.597 336.568 132.597H333.426V131.085H336.409C336.977 131.085 337.439 131.004 337.795 130.841C338.155 130.678 338.418 130.441 338.585 130.131C338.752 129.82 338.835 129.447 338.835 129.011C338.835 128.572 338.75 128.191 338.579 127.869C338.413 127.547 338.149 127.301 337.79 127.131C337.433 126.956 336.966 126.869 336.386 126.869H334.182V137H332.426ZM338.17 131.75L341.045 137H339.045L336.227 131.75H338.17ZM345.934 137.176C345.074 137.176 344.334 136.992 343.712 136.625C343.095 136.254 342.618 135.733 342.281 135.062C341.947 134.388 341.781 133.598 341.781 132.693C341.781 131.799 341.947 131.011 342.281 130.33C342.618 129.648 343.087 129.116 343.69 128.733C344.296 128.35 345.004 128.159 345.815 128.159C346.307 128.159 346.784 128.241 347.247 128.403C347.709 128.566 348.123 128.822 348.491 129.17C348.858 129.519 349.148 129.972 349.36 130.528C349.572 131.081 349.678 131.754 349.678 132.545V133.148H342.741V131.875H348.014C348.014 131.428 347.923 131.032 347.741 130.688C347.559 130.339 347.303 130.064 346.974 129.864C346.648 129.663 346.265 129.562 345.826 129.562C345.349 129.562 344.932 129.68 344.576 129.915C344.224 130.146 343.951 130.449 343.758 130.824C343.569 131.195 343.474 131.598 343.474 132.034V133.028C343.474 133.612 343.576 134.108 343.781 134.517C343.989 134.926 344.279 135.239 344.65 135.455C345.021 135.667 345.455 135.773 345.951 135.773C346.273 135.773 346.567 135.727 346.832 135.636C347.097 135.542 347.326 135.402 347.519 135.216C347.712 135.03 347.86 134.801 347.962 134.528L349.57 134.818C349.442 135.292 349.211 135.706 348.877 136.062C348.548 136.415 348.133 136.689 347.633 136.886C347.137 137.08 346.57 137.176 345.934 137.176ZM351.243 140.273V128.273H352.902V129.688H353.044C353.143 129.506 353.285 129.295 353.471 129.057C353.656 128.818 353.914 128.61 354.243 128.432C354.573 128.25 355.008 128.159 355.55 128.159C356.255 128.159 356.883 128.337 357.436 128.693C357.99 129.049 358.423 129.562 358.738 130.233C359.056 130.903 359.215 131.71 359.215 132.653C359.215 133.597 359.058 134.405 358.743 135.08C358.429 135.75 357.997 136.267 357.448 136.631C356.899 136.991 356.272 137.17 355.567 137.17C355.037 137.17 354.603 137.081 354.266 136.903C353.933 136.725 353.671 136.517 353.482 136.278C353.293 136.04 353.147 135.828 353.044 135.642H352.942V140.273H351.243ZM352.908 132.636C352.908 133.25 352.997 133.788 353.175 134.25C353.353 134.712 353.611 135.074 353.948 135.335C354.285 135.593 354.698 135.722 355.186 135.722C355.694 135.722 356.118 135.587 356.459 135.318C356.8 135.045 357.058 134.676 357.232 134.21C357.41 133.744 357.499 133.22 357.499 132.636C357.499 132.061 357.412 131.544 357.238 131.085C357.067 130.627 356.81 130.265 356.465 130C356.124 129.735 355.698 129.602 355.186 129.602C354.694 129.602 354.277 129.729 353.936 129.983C353.599 130.237 353.344 130.591 353.169 131.045C352.995 131.5 352.908 132.03 352.908 132.636ZM362.497 125.364V137H360.798V125.364H362.497ZM364.463 137V128.273H366.162V137H364.463ZM365.321 126.926C365.025 126.926 364.771 126.828 364.559 126.631C364.351 126.43 364.247 126.191 364.247 125.915C364.247 125.634 364.351 125.396 364.559 125.199C364.771 124.998 365.025 124.898 365.321 124.898C365.616 124.898 365.868 124.998 366.076 125.199C366.288 125.396 366.394 125.634 366.394 125.915C366.394 126.191 366.288 126.43 366.076 126.631C365.868 126.828 365.616 126.926 365.321 126.926ZM371.803 137.176C370.958 137.176 370.231 136.985 369.621 136.602C369.015 136.216 368.549 135.684 368.224 135.006C367.898 134.328 367.735 133.551 367.735 132.676C367.735 131.79 367.902 131.008 368.235 130.33C368.568 129.648 369.038 129.116 369.644 128.733C370.25 128.35 370.964 128.159 371.786 128.159C372.449 128.159 373.04 128.282 373.559 128.528C374.078 128.771 374.496 129.112 374.815 129.551C375.137 129.991 375.328 130.504 375.388 131.091H373.735C373.644 130.682 373.436 130.33 373.11 130.034C372.788 129.739 372.356 129.591 371.815 129.591C371.341 129.591 370.926 129.716 370.57 129.966C370.218 130.212 369.943 130.564 369.746 131.023C369.549 131.477 369.451 132.015 369.451 132.636C369.451 133.273 369.548 133.822 369.741 134.284C369.934 134.746 370.207 135.104 370.559 135.358C370.915 135.612 371.333 135.739 371.815 135.739C372.137 135.739 372.428 135.68 372.69 135.562C372.955 135.441 373.176 135.269 373.354 135.045C373.536 134.822 373.663 134.553 373.735 134.239H375.388C375.328 134.803 375.144 135.307 374.837 135.75C374.53 136.193 374.119 136.542 373.604 136.795C373.093 137.049 372.493 137.176 371.803 137.176ZM379.425 137.193C378.872 137.193 378.372 137.091 377.925 136.886C377.478 136.678 377.124 136.377 376.862 135.983C376.605 135.589 376.476 135.106 376.476 134.534C376.476 134.042 376.571 133.636 376.76 133.318C376.95 133 377.205 132.748 377.527 132.562C377.849 132.377 378.209 132.237 378.607 132.142C379.004 132.047 379.41 131.975 379.823 131.926C380.345 131.866 380.77 131.816 381.095 131.778C381.421 131.737 381.658 131.67 381.806 131.58C381.953 131.489 382.027 131.341 382.027 131.136V131.097C382.027 130.6 381.887 130.216 381.607 129.943C381.33 129.67 380.917 129.534 380.368 129.534C379.796 129.534 379.345 129.661 379.016 129.915C378.69 130.165 378.465 130.443 378.34 130.75L376.743 130.386C376.933 129.856 377.209 129.428 377.573 129.102C377.94 128.773 378.362 128.534 378.84 128.386C379.317 128.235 379.819 128.159 380.345 128.159C380.694 128.159 381.063 128.201 381.453 128.284C381.847 128.364 382.215 128.511 382.556 128.727C382.9 128.943 383.183 129.252 383.402 129.653C383.622 130.051 383.732 130.568 383.732 131.205V137H382.073V135.807H382.004C381.895 136.027 381.73 136.242 381.51 136.455C381.29 136.667 381.008 136.843 380.664 136.983C380.319 137.123 379.906 137.193 379.425 137.193ZM379.794 135.83C380.264 135.83 380.665 135.737 380.999 135.551C381.336 135.366 381.592 135.123 381.766 134.824C381.944 134.521 382.033 134.197 382.033 133.852V132.727C381.972 132.788 381.855 132.845 381.681 132.898C381.51 132.947 381.315 132.991 381.095 133.028C380.876 133.062 380.662 133.095 380.453 133.125C380.245 133.152 380.071 133.174 379.931 133.193C379.601 133.235 379.3 133.305 379.027 133.403C378.758 133.502 378.542 133.644 378.379 133.83C378.22 134.011 378.141 134.254 378.141 134.557C378.141 134.977 378.296 135.295 378.607 135.511C378.917 135.723 379.313 135.83 379.794 135.83Z" fill="white"/>
<rect x="477" y="338" width="60" height="60" rx="12" fill="#301C16"/>
<path d="M493 356.8V379.2C493 381.856 499.222 384 507 384C514.778 384 521 381.856 521 379.2V356.8" fill="#9D3131"/>
<path d="M493 356.8C493 354.149 499.268 352 507 352C514.732 352 521 354.149 521 356.8V379.2C521 381.856 514.778 384 507 384C499.222 384 493 381.856 493 379.2V356.8Z" fill="#9D3131"/>
<path d="M521 356.8C521 359.451 514.732 361.6 507 361.6C499.268 361.6 493 359.451 493 356.8M521 356.8C521 354.149 514.732 352 507 352C499.268 352 493 354.149 493 356.8M521 356.8V379.2C521 381.856 514.778 384 507 384C499.222 384 493 381.856 493 379.2V356.8M521 368C521 370.656 514.778 372.8 507 372.8C499.222 372.8 493 370.656 493 368" stroke="#FB6F6F" stroke-width="1.5" stroke-linecap="round" stroke-linejoin="round"/>
<path d="M489.559 422V410.364H493.707C494.608 410.364 495.356 410.519 495.951 410.83C496.55 411.14 496.997 411.57 497.292 412.119C497.587 412.665 497.735 413.295 497.735 414.011C497.735 414.723 497.586 415.35 497.286 415.892C496.991 416.43 496.544 416.848 495.945 417.148C495.351 417.447 494.603 417.597 493.701 417.597H490.559V416.085H493.542C494.11 416.085 494.572 416.004 494.928 415.841C495.288 415.678 495.551 415.441 495.718 415.131C495.885 414.82 495.968 414.447 495.968 414.011C495.968 413.572 495.883 413.191 495.712 412.869C495.546 412.547 495.283 412.301 494.923 412.131C494.567 411.956 494.099 411.869 493.519 411.869H491.315V422H489.559ZM495.303 416.75L498.178 422H496.178L493.36 416.75H495.303ZM503.067 422.176C502.207 422.176 501.467 421.992 500.846 421.625C500.228 421.254 499.751 420.733 499.414 420.062C499.08 419.388 498.914 418.598 498.914 417.693C498.914 416.799 499.08 416.011 499.414 415.33C499.751 414.648 500.221 414.116 500.823 413.733C501.429 413.35 502.137 413.159 502.948 413.159C503.44 413.159 503.918 413.241 504.38 413.403C504.842 413.566 505.257 413.822 505.624 414.17C505.991 414.519 506.281 414.972 506.493 415.528C506.705 416.081 506.811 416.754 506.811 417.545V418.148H499.874V416.875H505.147C505.147 416.428 505.056 416.032 504.874 415.688C504.692 415.339 504.436 415.064 504.107 414.864C503.781 414.663 503.399 414.562 502.959 414.562C502.482 414.562 502.065 414.68 501.709 414.915C501.357 415.146 501.084 415.449 500.891 415.824C500.702 416.195 500.607 416.598 500.607 417.034V418.028C500.607 418.612 500.709 419.108 500.914 419.517C501.122 419.926 501.412 420.239 501.783 420.455C502.154 420.667 502.588 420.773 503.084 420.773C503.406 420.773 503.7 420.727 503.965 420.636C504.23 420.542 504.459 420.402 504.652 420.216C504.846 420.03 504.993 419.801 505.096 419.528L506.704 419.818C506.575 420.292 506.344 420.706 506.01 421.062C505.681 421.415 505.266 421.689 504.766 421.886C504.27 422.08 503.704 422.176 503.067 422.176ZM510.916 422.193C510.363 422.193 509.863 422.091 509.416 421.886C508.969 421.678 508.615 421.377 508.354 420.983C508.096 420.589 507.967 420.106 507.967 419.534C507.967 419.042 508.062 418.636 508.251 418.318C508.441 418 508.696 417.748 509.018 417.562C509.34 417.377 509.7 417.237 510.098 417.142C510.496 417.047 510.901 416.975 511.314 416.926C511.837 416.866 512.261 416.816 512.587 416.778C512.912 416.737 513.149 416.67 513.297 416.58C513.445 416.489 513.518 416.341 513.518 416.136V416.097C513.518 415.6 513.378 415.216 513.098 414.943C512.821 414.67 512.409 414.534 511.859 414.534C511.287 414.534 510.837 414.661 510.507 414.915C510.181 415.165 509.956 415.443 509.831 415.75L508.234 415.386C508.424 414.856 508.7 414.428 509.064 414.102C509.431 413.773 509.854 413.534 510.331 413.386C510.808 413.235 511.31 413.159 511.837 413.159C512.185 413.159 512.554 413.201 512.945 413.284C513.339 413.364 513.706 413.511 514.047 413.727C514.392 413.943 514.674 414.252 514.893 414.653C515.113 415.051 515.223 415.568 515.223 416.205V422H513.564V420.807H513.496C513.386 421.027 513.221 421.242 513.001 421.455C512.782 421.667 512.5 421.843 512.155 421.983C511.81 422.123 511.397 422.193 510.916 422.193ZM511.286 420.83C511.755 420.83 512.157 420.737 512.49 420.551C512.827 420.366 513.083 420.123 513.257 419.824C513.435 419.521 513.524 419.197 513.524 418.852V417.727C513.464 417.788 513.346 417.845 513.172 417.898C513.001 417.947 512.806 417.991 512.587 418.028C512.367 418.062 512.153 418.095 511.945 418.125C511.736 418.152 511.562 418.174 511.422 418.193C511.092 418.235 510.791 418.305 510.518 418.403C510.25 418.502 510.034 418.644 509.871 418.83C509.712 419.011 509.632 419.254 509.632 419.557C509.632 419.977 509.787 420.295 510.098 420.511C510.409 420.723 510.804 420.83 511.286 420.83ZM520.433 422.17C519.728 422.17 519.1 421.991 518.546 421.631C517.997 421.267 517.565 420.75 517.251 420.08C516.94 419.405 516.785 418.597 516.785 417.653C516.785 416.71 516.942 415.903 517.257 415.233C517.575 414.562 518.01 414.049 518.564 413.693C519.117 413.337 519.743 413.159 520.444 413.159C520.986 413.159 521.421 413.25 521.751 413.432C522.084 413.61 522.342 413.818 522.524 414.057C522.709 414.295 522.853 414.506 522.956 414.688H523.058V410.364H524.757V422H523.098V420.642H522.956C522.853 420.828 522.706 421.04 522.512 421.278C522.323 421.517 522.062 421.725 521.728 421.903C521.395 422.081 520.963 422.17 520.433 422.17ZM520.808 420.722C521.296 420.722 521.709 420.593 522.046 420.335C522.387 420.074 522.645 419.712 522.819 419.25C522.997 418.788 523.086 418.25 523.086 417.636C523.086 417.03 522.999 416.5 522.825 416.045C522.651 415.591 522.395 415.237 522.058 414.983C521.721 414.729 521.304 414.602 520.808 414.602C520.296 414.602 519.87 414.735 519.529 415C519.189 415.265 518.931 415.627 518.757 416.085C518.586 416.544 518.501 417.061 518.501 417.636C518.501 418.22 518.588 418.744 518.762 419.21C518.937 419.676 519.194 420.045 519.535 420.318C519.88 420.587 520.304 420.722 520.808 420.722ZM481.426 442V430.364H485.574C486.475 430.364 487.223 430.519 487.818 430.83C488.416 431.14 488.863 431.57 489.159 432.119C489.454 432.665 489.602 433.295 489.602 434.011C489.602 434.723 489.452 435.35 489.153 435.892C488.858 436.43 488.411 436.848 487.812 437.148C487.218 437.447 486.469 437.597 485.568 437.597H482.426V436.085H485.409C485.977 436.085 486.439 436.004 486.795 435.841C487.155 435.678 487.418 435.441 487.585 435.131C487.752 434.82 487.835 434.447 487.835 434.011C487.835 433.572 487.75 433.191 487.579 432.869C487.413 432.547 487.149 432.301 486.79 432.131C486.433 431.956 485.966 431.869 485.386 431.869H483.182V442H481.426ZM487.17 436.75L490.045 442H488.045L485.227 436.75H487.17ZM494.934 442.176C494.074 442.176 493.334 441.992 492.712 441.625C492.095 441.254 491.618 440.733 491.281 440.062C490.947 439.388 490.781 438.598 490.781 437.693C490.781 436.799 490.947 436.011 491.281 435.33C491.618 434.648 492.087 434.116 492.69 433.733C493.296 433.35 494.004 433.159 494.815 433.159C495.307 433.159 495.784 433.241 496.247 433.403C496.709 433.566 497.123 433.822 497.491 434.17C497.858 434.519 498.148 434.972 498.36 435.528C498.572 436.081 498.678 436.754 498.678 437.545V438.148H491.741V436.875H497.014C497.014 436.428 496.923 436.032 496.741 435.688C496.559 435.339 496.303 435.064 495.974 434.864C495.648 434.663 495.265 434.562 494.826 434.562C494.349 434.562 493.932 434.68 493.576 434.915C493.224 435.146 492.951 435.449 492.758 435.824C492.569 436.195 492.474 436.598 492.474 437.034V438.028C492.474 438.612 492.576 439.108 492.781 439.517C492.989 439.926 493.279 440.239 493.65 440.455C494.021 440.667 494.455 440.773 494.951 440.773C495.273 440.773 495.567 440.727 495.832 440.636C496.097 440.542 496.326 440.402 496.519 440.216C496.712 440.03 496.86 439.801 496.962 439.528L498.57 439.818C498.442 440.292 498.211 440.706 497.877 441.062C497.548 441.415 497.133 441.689 496.633 441.886C496.137 442.08 495.57 442.176 494.934 442.176ZM500.243 445.273V433.273H501.902V434.688H502.044C502.143 434.506 502.285 434.295 502.471 434.057C502.656 433.818 502.914 433.61 503.243 433.432C503.573 433.25 504.008 433.159 504.55 433.159C505.255 433.159 505.883 433.337 506.436 433.693C506.99 434.049 507.423 434.562 507.738 435.233C508.056 435.903 508.215 436.71 508.215 437.653C508.215 438.597 508.058 439.405 507.743 440.08C507.429 440.75 506.997 441.267 506.448 441.631C505.899 441.991 505.272 442.17 504.567 442.17C504.037 442.17 503.603 442.081 503.266 441.903C502.933 441.725 502.671 441.517 502.482 441.278C502.293 441.04 502.147 440.828 502.044 440.642H501.942V445.273H500.243ZM501.908 437.636C501.908 438.25 501.997 438.788 502.175 439.25C502.353 439.712 502.611 440.074 502.948 440.335C503.285 440.593 503.698 440.722 504.186 440.722C504.694 440.722 505.118 440.587 505.459 440.318C505.8 440.045 506.058 439.676 506.232 439.21C506.41 438.744 506.499 438.22 506.499 437.636C506.499 437.061 506.412 436.544 506.238 436.085C506.067 435.627 505.81 435.265 505.465 435C505.124 434.735 504.698 434.602 504.186 434.602C503.694 434.602 503.277 434.729 502.936 434.983C502.599 435.237 502.344 435.591 502.169 436.045C501.995 436.5 501.908 437.03 501.908 437.636ZM511.497 430.364V442H509.798V430.364H511.497ZM513.463 442V433.273H515.162V442H513.463ZM514.321 431.926C514.025 431.926 513.771 431.828 513.559 431.631C513.351 431.43 513.247 431.191 513.247 430.915C513.247 430.634 513.351 430.396 513.559 430.199C513.771 429.998 514.025 429.898 514.321 429.898C514.616 429.898 514.868 429.998 515.076 430.199C515.288 430.396 515.394 430.634 515.394 430.915C515.394 431.191 515.288 431.43 515.076 431.631C514.868 431.828 514.616 431.926 514.321 431.926ZM520.803 442.176C519.958 442.176 519.231 441.985 518.621 441.602C518.015 441.216 517.549 440.684 517.224 440.006C516.898 439.328 516.735 438.551 516.735 437.676C516.735 436.79 516.902 436.008 517.235 435.33C517.568 434.648 518.038 434.116 518.644 433.733C519.25 433.35 519.964 433.159 520.786 433.159C521.449 433.159 522.04 433.282 522.559 433.528C523.078 433.771 523.496 434.112 523.815 434.551C524.137 434.991 524.328 435.504 524.388 436.091H522.735C522.644 435.682 522.436 435.33 522.11 435.034C521.788 434.739 521.356 434.591 520.815 434.591C520.341 434.591 519.926 434.716 519.57 434.966C519.218 435.212 518.943 435.564 518.746 436.023C518.549 436.477 518.451 437.015 518.451 437.636C518.451 438.273 518.548 438.822 518.741 439.284C518.934 439.746 519.207 440.104 519.559 440.358C519.915 440.612 520.333 440.739 520.815 440.739C521.137 440.739 521.428 440.68 521.69 440.562C521.955 440.441 522.176 440.269 522.354 440.045C522.536 439.822 522.663 439.553 522.735 439.239H524.388C524.328 439.803 524.144 440.307 523.837 440.75C523.53 441.193 523.119 441.542 522.604 441.795C522.093 442.049 521.493 442.176 520.803 442.176ZM528.425 442.193C527.872 442.193 527.372 442.091 526.925 441.886C526.478 441.678 526.124 441.377 525.862 440.983C525.605 440.589 525.476 440.106 525.476 439.534C525.476 439.042 525.571 438.636 525.76 438.318C525.95 438 526.205 437.748 526.527 437.562C526.849 437.377 527.209 437.237 527.607 437.142C528.004 437.047 528.41 436.975 528.823 436.926C529.345 436.866 529.77 436.816 530.095 436.778C530.421 436.737 530.658 436.67 530.806 436.58C530.953 436.489 531.027 436.341 531.027 436.136V436.097C531.027 435.6 530.887 435.216 530.607 434.943C530.33 434.67 529.917 434.534 529.368 434.534C528.796 434.534 528.345 434.661 528.016 434.915C527.69 435.165 527.465 435.443 527.34 435.75L525.743 435.386C525.933 434.856 526.209 434.428 526.573 434.102C526.94 433.773 527.362 433.534 527.84 433.386C528.317 433.235 528.819 433.159 529.345 433.159C529.694 433.159 530.063 433.201 530.453 433.284C530.847 433.364 531.215 433.511 531.556 433.727C531.9 433.943 532.183 434.252 532.402 434.653C532.622 435.051 532.732 435.568 532.732 436.205V442H531.073V440.807H531.004C530.895 441.027 530.73 441.242 530.51 441.455C530.29 441.667 530.008 441.843 529.664 441.983C529.319 442.123 528.906 442.193 528.425 442.193ZM528.794 440.83C529.264 440.83 529.665 440.737 529.999 440.551C530.336 440.366 530.592 440.123 530.766 439.824C530.944 439.521 531.033 439.197 531.033 438.852V437.727C530.972 437.788 530.855 437.845 530.681 437.898C530.51 437.947 530.315 437.991 530.095 438.028C529.876 438.062 529.662 438.095 529.453 438.125C529.245 438.152 529.071 438.174 528.931 438.193C528.601 438.235 528.3 438.305 528.027 438.403C527.758 438.502 527.542 438.644 527.379 438.83C527.22 439.011 527.141 439.254 527.141 439.557C527.141 439.977 527.296 440.295 527.607 440.511C527.917 440.723 528.313 440.83 528.794 440.83Z" fill="white"/>
<line x1="99" y1="235.25" x2="193" y2="235.25" stroke="#FB6F6F" stroke-width="1.5" stroke-dasharray="4 4"/>
<path d="M230 199.467V103C230 80.9086 247.909 63 270 63H323" stroke="#FB6F6F" stroke-width="1.5" stroke-dasharray="4 4"/>
<path d="M263 233L466 233C488.091 233 506 250.909 506 273L506 335" stroke="#FB6F6F" stroke-width="1.5" stroke-dasharray="4 4"/>
<defs>
<filter id="filter0_ddd_183_29036" x="9" y="191" width="108" height="108" filterUnits="userSpaceOnUse" color-interpolation-filters="sRGB">
<feFlood flood-opacity="0" result="BackgroundImageFix"/>
<feColorMatrix in="SourceAlpha" type="matrix" values="0 0 0 0 0 0 0 0 0 0 0 0 0 0 0 0 0 0 127 0" result="hardAlpha"/>
<feOffset dy="12"/>
<feGaussianBlur stdDeviation="12"/>
<feComposite in2="hardAlpha" operator="out"/>
<feColorMatrix type="matrix" values="0 0 0 0 0 0 0 0 0 0 0 0 0 0 0 0 0 0 0.15 0"/>
<feBlend mode="normal" in2="BackgroundImageFix" result="effect1_dropShadow_183_29036"/>
<feColorMatrix in="SourceAlpha" type="matrix" values="0 0 0 0 0 0 0 0 0 0 0 0 0 0 0 0 0 0 127 0" result="hardAlpha"/>
<feOffset dy="2"/>
<feGaussianBlur stdDeviation="2"/>
<feComposite in2="hardAlpha" operator="out"/>
<feColorMatrix type="matrix" values="0 0 0 0 0 0 0 0 0 0 0 0 0 0 0 0 0 0 0.075 0"/>
<feBlend mode="normal" in2="effect1_dropShadow_183_29036" result="effect2_dropShadow_183_29036"/>
<feColorMatrix in="SourceAlpha" type="matrix" values="0 0 0 0 0 0 0 0 0 0 0 0 0 0 0 0 0 0 127 0" result="hardAlpha"/>
<feMorphology radius="1" operator="dilate" in="SourceAlpha" result="effect3_dropShadow_183_29036"/>
<feOffset/>
<feComposite in2="hardAlpha" operator="out"/>
<feColorMatrix type="matrix" values="0 0 0 0 0 0 0 0 0 0 0 0 0 0 0 0 0 0 0.05 0"/>
<feBlend mode="normal" in2="effect2_dropShadow_183_29036" result="effect3_dropShadow_183_29036"/>
<feBlend mode="normal" in="SourceGraphic" in2="effect3_dropShadow_183_29036" result="shape"/>
</filter>
<linearGradient id="paint0_linear_183_29036" x1="263.998" y1="235" x2="233.998" y2="267" gradientUnits="userSpaceOnUse">
<stop stop-color="#FFD7CB"/>
<stop offset="1" stop-color="#FFA4A4"/>
</linearGradient>
<linearGradient id="paint1_linear_183_29036" x1="263.998" y1="235" x2="233.998" y2="267" gradientUnits="userSpaceOnUse">
<stop stop-color="#FFD7CB"/>
<stop offset="1" stop-color="#FFA4A4"/>
</linearGradient>
<linearGradient id="paint2_linear_183_29036" x1="93" y1="203" x2="33" y2="203" gradientUnits="userSpaceOnUse">
<stop stop-color="white" stop-opacity="0"/>
<stop offset="0.503571" stop-color="white" stop-opacity="0.25"/>
<stop offset="1" stop-color="white" stop-opacity="0"/>
</linearGradient>
<clipPath id="clip0_183_29036">
<rect x="33" y="203" width="60" height="60" rx="8" fill="white"/>
</clipPath>
</defs>
</svg>
